<svg xmlns="http://www.w3.org/2000/svg" width="920" height="280" viewBox="0 0 920 280" role="img" aria-labelledby="title desc">
  <title id="title">Rime pipeline DAG</title>
  <desc id="desc">A SQL node feeds a derive node, which feeds a Python node.</desc>
  <defs>
    <marker id="arrow" viewBox="0 0 10 10" refX="9" refY="5" markerWidth="7" markerHeight="7" orient="auto-start-reverse">
      <path d="M 0 0 L 10 5 L 0 10 z" fill="#c9ced6" />
    </marker>
  </defs>

  <rect width="920" height="280" rx="8" fill="#fafafa" />
  <path d="M 250 140 C 300 140, 320 140, 370 140" fill="none" stroke="#c9ced6" stroke-width="2" marker-end="url(#arrow)" />
  <path d="M 550 140 C 600 140, 620 140, 670 140" fill="none" stroke="#c9ced6" stroke-width="2" marker-end="url(#arrow)" />

  <g font-family="Inter, ui-sans-serif, system-ui, sans-serif">
    <g transform="translate(70, 98)">
      <rect width="180" height="84" rx="5" fill="#ffffff" stroke="#b8c3cf" stroke-width="1.5" />
      <circle cx="22" cy="24" r="5" fill="#2c8a4a" />
      <text x="38" y="28" font-size="13" font-weight="700" fill="#1f2328">Import orders</text>
      <text x="22" y="62" font-family="ui-monospace, SFMono-Regular, Menlo, monospace" font-size="11" fill="#69707a">raw_orders</text>
      <text x="160" y="62" text-anchor="end" font-family="ui-monospace, SFMono-Regular, Menlo, monospace" font-size="10" fill="#8b949e">sql</text>
    </g>

    <g transform="translate(370, 98)">
      <rect width="180" height="84" rx="5" fill="#ffffff" stroke="#b8c3cf" stroke-width="1.5" />
      <circle cx="22" cy="24" r="5" fill="#2c8a4a" />
      <text x="38" y="28" font-size="13" font-weight="700" fill="#1f2328">Compute revenue</text>
      <text x="22" y="62" font-family="ui-monospace, SFMono-Regular, Menlo, monospace" font-size="11" fill="#69707a">order_metrics</text>
      <text x="160" y="62" text-anchor="end" font-family="ui-monospace, SFMono-Regular, Menlo, monospace" font-size="10" fill="#8b949e">derive</text>
    </g>

    <g transform="translate(670, 98)">
      <rect width="180" height="84" rx="5" fill="#ffffff" stroke="#b8c3cf" stroke-width="1.5" />
      <circle cx="22" cy="24" r="5" fill="#2c8a4a" />
      <text x="38" y="28" font-size="13" font-weight="700" fill="#1f2328">Graph sales</text>
      <text x="22" y="62" font-family="ui-monospace, SFMono-Regular, Menlo, monospace" font-size="11" fill="#69707a">sales_chart</text>
      <text x="160" y="62" text-anchor="end" font-family="ui-monospace, SFMono-Regular, Menlo, monospace" font-size="10" fill="#8b949e">python</text>
    </g>
  </g>
</svg>
